<?xml version="1.0" standalone="no"?>
<!DOCTYPE svg PUBLIC "-//W3C//DTD SVG 20010904//EN"
 "http://www.w3.org/TR/2001/REC-SVG-20010904/DTD/svg10.dtd">
<svg version="1.0" xmlns="http://www.w3.org/2000/svg"
 width="242.000000pt" height="198.000000pt" viewBox="0 0 242.000000 198.000000"
 preserveAspectRatio="xMidYMid meet">

<g transform="translate(0.000000,198.000000) scale(0.100000,-0.100000)"
fill="#000000" stroke="none">
<path d="M815 1901 c-127 -46 -302 -166 -317 -218 -6 -23 -6 -24 16 -10 195
128 293 177 356 177 28 0 30 3 30 35 0 41 -10 43 -85 16z"/>
<path d="M944 1743 c3 -98 5 -447 6 -775 l0 -598 26 0 27 0 -7 163 c-4 89 -11
324 -16 522 -21 789 -23 865 -32 865 -6 0 -7 -72 -4 -177z"/>
<path d="M990 1839 c0 -46 4 -163 10 -259 17 -303 39 -738 46 -915 4 -93 8
-181 10 -195 1 -14 3 -42 3 -63 1 -36 3 -38 29 -35 l27 3 12 285 c6 157 16
389 22 515 6 127 16 336 21 465 6 129 12 245 15 258 3 12 1 22 -4 22 -5 0 -12
-39 -15 -87 -34 -486 -76 -1006 -83 -1000 -3 4 -10 85 -33 402 -5 72 -16 213
-24 315 -9 102 -18 225 -21 275 -3 49 -8 91 -10 94 -3 2 -5 -34 -5 -80z"/>
<path d="M1207 1808 c-4 -62 -7 -176 -7 -254 0 -77 -4 -255 -9 -395 -6 -140
-13 -374 -16 -521 l-6 -268 26 0 25 0 0 729 c0 400 3 749 6 775 4 28 3 46 -3
46 -6 0 -13 -50 -16 -112z"/>
<path d="M1270 1886 c0 -31 2 -33 53 -45 70 -15 157 -57 261 -125 46 -31 86
-56 89 -56 17 0 -12 46 -47 74 -108 88 -225 152 -323 176 -32 8 -33 7 -33 -24z"/>
<path d="M812 1700 c-131 -37 -367 -172 -378 -216 -4 -14 -4 -27 -1 -30 3 -3
29 11 60 30 100 64 217 117 310 141 l92 23 0 33 c0 18 -4 33 -10 35 -5 1 -39
-6 -73 -16z"/>
<path d="M1270 1676 c0 -31 4 -36 28 -41 138 -29 246 -73 374 -154 36 -23 68
-41 71 -41 3 0 1 14 -5 30 -22 66 -287 211 -426 235 l-42 7 0 -36z"/>
<path d="M720 1474 c-62 -20 -154 -62 -223 -102 -104 -59 -118 -71 -127 -101
-5 -19 -8 -37 -6 -39 2 -1 35 16 72 39 118 72 270 130 396 151 l68 11 0 38 c0
38 -1 39 -37 39 -21 0 -85 -16 -143 -36z"/>
<path d="M1277 1503 c-4 -3 -7 -23 -7 -44 l0 -37 63 -7 c114 -13 292 -83 436
-171 l43 -26 -7 33 c-9 44 -13 48 -119 108 -114 64 -221 109 -316 133 -86 20
-84 20 -93 11z"/>
<path d="M810 1299 c-81 -12 -226 -62 -327 -112 -141 -70 -167 -90 -181 -133
-6 -21 -10 -39 -9 -40 1 -1 51 23 111 52 150 75 276 120 371 134 137 20 127
15 123 63 -3 47 -6 49 -88 36z"/>
<path d="M1270 1262 c0 -22 4 -44 10 -47 5 -3 51 -12 103 -20 111 -17 201 -48
365 -126 68 -32 125 -59 127 -59 9 0 -16 65 -31 82 -29 31 -273 146 -369 173
-49 14 -116 29 -147 32 l-58 6 0 -41z"/>
<path d="M787 1094 c-160 -32 -350 -100 -466 -167 -67 -38 -75 -46 -87 -87 -7
-24 -12 -46 -10 -48 2 -2 41 15 87 38 163 83 304 129 484 159 l100 17 0 49 c0
59 -4 60 -108 39z"/>
<path d="M1270 1048 l0 -55 73 -7 c150 -15 303 -61 486 -147 57 -27 107 -49
112 -49 11 0 -10 72 -26 90 -17 19 -180 101 -265 133 -86 32 -251 75 -322 83
l-58 7 0 -55z"/>
<path d="M690 874 c-145 -33 -246 -68 -377 -129 -117 -55 -137 -74 -148 -137
l-7 -38 104 50 c169 81 323 126 553 162 l80 13 3 53 3 52 -53 -1 c-29 0 -100
-11 -158 -25z"/>
<path d="M1270 840 c0 -50 3 -60 18 -60 57 0 207 -24 288 -46 124 -32 217 -66
333 -120 52 -24 96 -44 97 -44 9 0 3 43 -10 73 -11 28 -31 41 -120 86 -130 64
-305 122 -450 150 -161 31 -156 33 -156 -39z"/>
<path d="M755 685 c-141 -25 -311 -72 -432 -121 -179 -72 -194 -82 -215 -144
-10 -30 -16 -55 -15 -57 2 -1 44 14 93 36 231 100 467 161 669 174 l40 2 0 60
c0 60 0 60 -30 62 -16 1 -66 -5 -110 -12z"/>
<path d="M1270 631 l0 -58 104 -12 c212 -24 422 -83 649 -184 31 -14 57 -23
57 -19 0 4 -8 30 -18 57 -16 49 -20 51 -107 95 -171 85 -507 180 -639 180
l-46 0 0 -59z"/>
<path d="M743 484 c-188 -26 -413 -94 -608 -184 l-80 -36 -17 -63 c-11 -43
-13 -61 -5 -57 113 50 248 101 325 124 171 52 248 68 397 82 66 7 126 14 133
16 19 5 16 120 -4 128 -18 7 -10 8 -141 -10z"/>
<path d="M1277 483 c-4 -3 -7 -32 -7 -64 0 -65 -7 -62 145 -74 183 -15 437
-84 643 -173 76 -33 92 -37 87 -22 -3 9 -11 37 -18 61 -11 40 -17 47 -77 76
-165 82 -423 161 -613 188 -114 16 -150 18 -160 8z"/>
<path d="M970 254 c-253 -21 -379 -37 -517 -69 -89 -20 -328 -98 -315 -103 5
-1 66 8 133 22 166 32 308 52 564 75 137 13 490 13 617 1 236 -24 503 -75 601
-115 9 -4 17 -5 17 -2 0 10 -108 55 -203 86 -113 36 -236 64 -374 86 -93 15
-427 27 -523 19z"/>
</g>
</svg>
